<svg width="24" height="24" viewBox="0 0 24 24" fill="none" xmlns="http://www.w3.org/2000/svg">
<path d="M3.89504 3.99168C3.89504 3.99168 4.1899 3.55656 4.31218 3.3638C4.43447 3.17104 3.99561 2.71564 3.82532 2.57135C3.65504 2.42706 3.38647 2.49921 3.38647 2.49921C1.24361 3.43595 0.171603 5.35789 0.0253174 5.74228C-0.120969 6.12667 0.397889 6.54601 0.780747 6.75117C0.956747 6.84585 1.23675 6.63619 1.40932 6.48063L1.46761 6.42201L1.55789 6.33183L1.55903 6.3307L7.38876 12.0582L9.64933 9.82854L3.88704 3.99957L3.89504 3.99168Z" fill="#7289DA"/>
<path d="M17.6673 10.0336L17.9747 9.74501L20.737 12.4436C20.7564 12.4605 20.777 12.4673 20.7953 12.4673C20.8479 12.4673 20.8913 12.42 20.8913 12.42C20.8913 12.42 23.9496 9.42713 23.9599 9.41698C24.0502 9.32906 23.9599 9.28058 23.9599 9.28058L21.601 6.93818L21.5976 6.94156L21.2742 6.62931L21.4547 6.45797L21.841 6.50193L21.7679 5.99693L21.865 5.89999L21.7199 5.17179C21.2159 4.46726 19.8353 3.33889 19.8353 3.33889L19.113 3.21039L19.0399 3.3062L18.4959 3.22617L18.5484 3.68383L18.5827 3.71764L18.4216 3.87771L17.5301 3.01763C17.5301 3.01763 12.3576 0.246866 12.0821 0.11836C11.9267 0.0473442 11.8124 0 11.7027 0C11.6181 0 11.5359 0.0281811 11.441 0.0946884C11.2216 0.246866 11.3507 0.553476 11.3507 0.553476L14.5667 6.41513L15.2101 7.04414L14.9347 7.3158L14.4204 7.24591L14.4993 7.74866L14.3507 7.8952L14.3244 7.86928C14.3004 7.8456 14.2673 7.83321 14.2353 7.83321C14.2033 7.83321 14.1713 7.8456 14.1461 7.86928C14.097 7.91775 14.097 7.99666 14.1461 8.04513L14.1724 8.07105L14.1016 8.14207L14.0833 8.12291C14.0581 8.09923 14.0261 8.08684 13.9941 8.08684C13.961 8.08684 13.929 8.09923 13.905 8.12291C13.8559 8.17138 13.8559 8.25028 13.905 8.29876L13.9244 8.31792L12.5713 9.65934L12.5404 9.6289C12.5153 9.60523 12.4833 9.59283 12.4513 9.59283C12.4193 9.59283 12.3873 9.60523 12.3621 9.6289C12.313 9.67737 12.313 9.75628 12.3621 9.80475L12.3941 9.83519L12.3221 9.9062L12.2981 9.88366C12.2741 9.85886 12.241 9.84646 12.2101 9.84646C12.177 9.84646 12.145 9.85886 12.1199 9.88366C12.0719 9.93213 12.0719 10.0099 12.1199 10.0584L12.1439 10.0821L11.9679 10.2579L11.9439 10.4811L12.0364 10.5747L12.0341 10.5758L11.9221 10.6885L4.62041 17.8893L4.52555 17.8116L4.2227 17.8544L4.05127 18.0257L4.03984 18.0145C4.0147 17.9897 3.9827 17.9773 3.9507 17.9773C3.9187 17.9773 3.88555 17.9897 3.86155 18.0145C3.81241 18.0629 3.81241 18.1407 3.86155 18.1892L3.87527 18.2027L3.80441 18.2748L3.79755 18.2681C3.77355 18.2433 3.74041 18.2309 3.70841 18.2309C3.67641 18.2309 3.64441 18.2433 3.61927 18.2681C3.57127 18.3166 3.57127 18.3943 3.61927 18.4428L3.62727 18.4518L2.29126 19.7921L2.26384 19.7651C2.23869 19.7403 2.20784 19.729 2.17469 19.729C2.14269 19.729 2.11069 19.7403 2.08555 19.7651C2.03641 19.8135 2.03641 19.8924 2.08555 19.9409L2.11526 19.9691L2.04441 20.0401L2.02269 20.0187C1.99755 19.995 1.96555 19.9826 1.93241 19.9826C1.90155 19.9826 1.86841 19.995 1.84441 20.0187C1.79526 20.0672 1.79526 20.1461 1.84441 20.1945L1.86726 20.2182L1.76783 20.3185L1.25012 20.2272L1.28898 20.7976L1.12555 20.9622L1.26726 21.731C1.26726 21.731 1.48441 22.4006 1.93126 22.8447C2.36441 23.2753 3.02498 23.4816 3.05355 23.503L3.79984 23.6315L3.98384 23.4534L4.49812 23.5357L4.41355 23.0341L4.57012 22.883L4.64213 22.954C4.66613 22.9777 4.69813 22.9901 4.73013 22.9901C4.76213 22.9901 4.79527 22.9777 4.81927 22.954C4.86841 22.9044 4.86841 22.8267 4.81927 22.7782L4.74841 22.7083L4.82155 22.6384L4.88327 22.6993C4.90727 22.7241 4.94041 22.7365 4.97241 22.7365C5.00441 22.7365 5.03641 22.7241 5.06155 22.6993C5.1107 22.6508 5.1107 22.573 5.06155 22.5246L5.00098 22.4637L6.35756 21.1437L6.41699 21.2023C6.44099 21.2271 6.47413 21.2384 6.50613 21.2384C6.53813 21.2384 6.57013 21.2271 6.59527 21.2023C6.64327 21.1538 6.64327 21.0749 6.59527 21.0264L6.53699 20.9701L6.60899 20.8991L6.65927 20.9487C6.68327 20.9723 6.71527 20.9847 6.74727 20.9847C6.78041 20.9847 6.81241 20.9723 6.83641 20.9487C6.88556 20.9002 6.88556 20.8213 6.83641 20.7728L6.78727 20.7243L6.93927 20.5778L6.99413 20.2565L6.91299 20.1765L6.91413 20.1754L7.06156 20.0311L14.3141 12.8754L14.3107 12.8686L14.4524 13.0129L14.6799 12.9881L14.8844 12.7852L14.9176 12.8179C14.9427 12.8415 14.9747 12.8539 15.0067 12.8539C15.0387 12.8539 15.0719 12.8415 15.0959 12.8179C15.145 12.7694 15.145 12.6905 15.0959 12.642L15.0627 12.6093L15.1347 12.5394L15.1599 12.5642C15.1839 12.5879 15.2159 12.6003 15.249 12.6003C15.281 12.6003 15.313 12.5879 15.337 12.5642C15.3861 12.5158 15.3861 12.4369 15.337 12.3884L15.3119 12.3625L16.6673 11.0233L16.7027 11.0582C16.7267 11.0819 16.7587 11.0943 16.7907 11.0943C16.8239 11.0943 16.8559 11.0819 16.8799 11.0582C16.929 11.0098 16.929 10.9309 16.8799 10.8824L16.8444 10.8474L16.9164 10.7764L16.9439 10.8046C16.969 10.8283 17.001 10.8407 17.033 10.8407C17.065 10.8407 17.097 10.8283 17.1221 10.8046C17.1713 10.755 17.1713 10.6772 17.1221 10.6288L17.0947 10.6006L17.2456 10.4518L17.7496 10.5296L17.6673 10.0336Z" fill="#7289DA"/>
<path d="M18.6744 18.1214L15.4595 15.7182L14.8869 15.1365L12.6687 17.3245L13.2264 17.8498L15.3212 20.9486L18.1464 24L21.4024 21.0038L18.6744 18.1214Z" fill="#7289DA"/>
</svg>
