<svg width="24" height="24" viewBox="0 0 24 24" fill="none" xmlns="http://www.w3.org/2000/svg">
<g clip-path="url(#clip0)">
<path d="M16.2366 16.2176H14.9618C14.2262 16.2075 13.5245 15.906 13.0108 15.3793C12.4971 14.8525 12.2131 14.1434 12.2213 13.4075V12.0941C12.2193 11.9487 12.2459 11.8043 12.2997 11.6692C12.3534 11.5341 12.4333 11.4109 12.5347 11.3067C12.636 11.2025 12.7569 11.1192 12.8905 11.0617C13.024 11.0042 13.1675 10.9736 13.3129 10.9716H19.3283V9.40625H8.64104C7.67155 11.5902 6.67916 13.858 6.3509 14.7515C6.14687 15.2686 5.79289 15.7129 5.33446 16.0272C4.87603 16.3415 4.3341 16.5115 3.77832 16.5154V17.4546C4.62878 18.2825 5.76727 18.7479 6.95397 18.7527H16.5573C17.2916 18.7507 17.9952 18.458 18.5145 17.9386C19.0337 17.4193 19.3263 16.7154 19.3283 15.9809V15.7823C18.8979 16.0663 18.3935 16.2177 17.8779 16.2176H16.2366ZM9.80137 14.0795C9.61287 14.0794 9.4287 14.023 9.27244 13.9175C9.11618 13.8121 8.99496 13.6624 8.9243 13.4876C8.85364 13.3128 8.83676 13.1208 8.87583 12.9364C8.9149 12.7519 9.00813 12.5833 9.14358 12.4522C9.27904 12.3211 9.45054 12.2334 9.63613 12.2004C9.82172 12.1674 10.0129 12.1905 10.1853 12.2669C10.3576 12.3433 10.5032 12.4694 10.6035 12.6291C10.7037 12.7887 10.754 12.9747 10.748 13.1632C10.74 13.409 10.6368 13.642 10.4601 13.813C10.2835 13.9841 10.0472 14.0796 9.80137 14.0795Z" fill="#AABFF2"/>
<path d="M9.80136 12.1858C9.55023 12.1858 9.30939 12.2856 9.13182 12.4631C8.95425 12.6407 8.85449 12.8815 8.85449 13.1327C8.85449 13.3838 8.95425 13.6246 9.13182 13.8022C9.30939 13.9798 9.55023 14.0795 9.80136 14.0795C10.0525 14.0795 10.2933 13.9798 10.4709 13.8022C10.6485 13.6246 10.7482 13.3838 10.7482 13.1327C10.7482 12.8815 10.6485 12.6407 10.4709 12.4631C10.2933 12.2856 10.0525 12.1858 9.80136 12.1858V12.1858Z" fill="black"/>
<path d="M19.5188 10.9717H13.3125C13.1671 10.9737 13.0236 11.0043 12.8901 11.0618C12.7565 11.1193 12.6356 11.2025 12.5343 11.3067C12.4329 11.411 12.353 11.5342 12.2993 11.6693C12.2455 11.8044 12.2189 11.9488 12.2209 12.0942V13.4076C12.2127 14.1434 12.4966 14.8525 13.0104 15.3793C13.5241 15.9061 14.2258 16.2076 14.9614 16.2176H17.8775C18.3931 16.2177 18.8975 16.0664 19.3279 15.7824C19.355 15.77 19.3806 15.7546 19.4043 15.7366C19.7751 15.4798 20.079 15.1377 20.2902 14.7391C20.5014 14.3404 20.6138 13.8969 20.618 13.4457V12.0942C20.6201 11.7998 20.5056 11.5166 20.2997 11.3063C20.0938 11.096 19.813 10.9757 19.5188 10.9717V10.9717ZM16.8011 14.9959H15.5721C15.5065 15.0043 15.4398 14.9987 15.3765 14.9793C15.3132 14.96 15.2548 14.9274 15.2051 14.8837C15.1554 14.8399 15.1156 14.7861 15.0883 14.7258C15.061 14.6655 15.0469 14.6001 15.0469 14.5339C15.0469 14.4677 15.061 14.4023 15.0883 14.3419C15.1156 14.2816 15.1554 14.2278 15.2051 14.1841C15.2548 14.1404 15.3132 14.1078 15.3765 14.0884C15.4398 14.0691 15.5065 14.0634 15.5721 14.0719H16.8011C16.8668 14.0634 16.9335 14.0691 16.9967 14.0884C17.06 14.1078 17.1185 14.1404 17.1682 14.1841C17.2178 14.2278 17.2577 14.2816 17.2849 14.3419C17.3122 14.4023 17.3263 14.4677 17.3263 14.5339C17.3263 14.6001 17.3122 14.6655 17.2849 14.7258C17.2577 14.7861 17.2178 14.8399 17.1682 14.8837C17.1185 14.9274 17.06 14.96 16.9967 14.9793C16.9335 14.9987 16.8668 15.0043 16.8011 14.9959V14.9959ZM18.9768 14.9959H18.4806C18.4149 15.0043 18.3483 14.9987 18.285 14.9793C18.2217 14.96 18.1632 14.9274 18.1136 14.8837C18.0639 14.8399 18.0241 14.7861 17.9968 14.7258C17.9695 14.6655 17.9554 14.6001 17.9554 14.5339C17.9554 14.4677 17.9695 14.4023 17.9968 14.3419C18.0241 14.2816 18.0639 14.2278 18.1136 14.1841C18.1632 14.1404 18.2217 14.1078 18.285 14.0884C18.3483 14.0691 18.4149 14.0634 18.4806 14.0719H18.9462C19.0585 14.0864 19.1617 14.1412 19.2364 14.2263C19.3112 14.3113 19.3524 14.4207 19.3524 14.5339C19.3524 14.6471 19.3112 14.7565 19.2364 14.8415C19.1617 14.9265 19.0585 14.9814 18.9462 14.9959H18.9768Z" fill="#CBDAF7"/>
<path d="M16.8011 14.0719H15.572C15.5064 14.0635 15.4397 14.0691 15.3764 14.0885C15.3131 14.1078 15.2547 14.1404 15.205 14.1841C15.1553 14.2278 15.1155 14.2817 15.0882 14.342C15.061 14.4023 15.0469 14.4677 15.0469 14.5339C15.0469 14.6001 15.061 14.6655 15.0882 14.7259C15.1155 14.7862 15.1553 14.84 15.205 14.8837C15.2547 14.9274 15.3131 14.96 15.3764 14.9794C15.4397 14.9987 15.5064 15.0044 15.572 14.9959H16.8011C16.8667 15.0044 16.9334 14.9987 16.9967 14.9794C17.06 14.96 17.1184 14.9274 17.1681 14.8837C17.2178 14.84 17.2576 14.7862 17.2849 14.7259C17.3121 14.6655 17.3262 14.6001 17.3262 14.5339C17.3262 14.4677 17.3121 14.4023 17.2849 14.342C17.2576 14.2817 17.2178 14.2278 17.1681 14.1841C17.1184 14.1404 17.06 14.1078 16.9967 14.0885C16.9334 14.0691 16.8667 14.0635 16.8011 14.0719V14.0719ZM18.9462 14.0719H18.4805C18.4149 14.0635 18.3482 14.0691 18.2849 14.0885C18.2216 14.1078 18.1632 14.1404 18.1135 14.1841C18.0638 14.2278 18.024 14.2817 17.9967 14.342C17.9694 14.4023 17.9553 14.4677 17.9553 14.5339C17.9553 14.6001 17.9694 14.6655 17.9967 14.7259C18.024 14.7862 18.0638 14.84 18.1135 14.8837C18.1632 14.9274 18.2216 14.96 18.2849 14.9794C18.3482 14.9987 18.4149 15.0044 18.4805 14.9959H18.9462C19.0584 14.9814 19.1616 14.9265 19.2363 14.8415C19.3111 14.7565 19.3523 14.6471 19.3523 14.5339C19.3523 14.4207 19.3111 14.3113 19.2363 14.2263C19.1616 14.1413 19.0584 14.0864 18.9462 14.0719V14.0719Z" fill="#AABFF2"/>
<path d="M1.71001 15.7366C1.59405 15.6831 1.48181 15.6219 1.37402 15.5533V19.967L2.55761 20.7993L3.74119 19.967V16.4926C2.99137 16.5156 2.26231 16.2443 1.71001 15.7366V15.7366Z" fill="#EF8843"/>
<path d="M5.57265 14.24C5.42754 14.6006 5.21055 14.9278 4.93491 15.2018C4.65926 15.4758 4.33073 15.6908 3.96933 15.8337C3.60794 15.9766 3.22124 16.0444 2.8328 16.0329C2.44437 16.0215 2.06233 15.9311 1.70996 15.7672C2.2609 16.2776 2.98988 16.5517 3.74055 16.5308C4.29632 16.5269 4.83826 16.3569 5.29669 16.0426C5.75512 15.7283 6.1091 15.284 6.31313 14.7668C6.65665 13.8963 7.64904 11.6284 8.60326 9.42163H7.64141C7.64141 9.42163 6.31313 12.3539 5.57265 14.24Z" fill="#D0D9EA"/>
<path d="M11.0451 4L11.694 4.05345L11.0451 4ZM8.64813 4.084C9.12193 4.02826 9.59858 4.00021 10.0756 4C9.59858 4.00021 9.12193 4.02826 8.64813 4.084V4.084ZM16.6712 7.28349C17.5905 7.3032 18.5068 7.39511 19.4118 7.55838C18.8087 6.84823 16.4956 4.50398 11.694 4.084C15.1674 4.91632 16.4498 6.89405 16.6712 7.28349V7.28349ZM5.57172 14.2399C6.31219 12.3538 7.64047 9.4063 7.64047 9.4063C7.64047 9.4063 9.99167 7.62711 14.8239 7.32167C13.1444 5.03086 10.3734 4.26726 8.65576 4.084C2.76249 4.71779 0.00669424 9.19249 0.00669424 12.7661C-0.0289857 13.3097 0.0784106 13.853 0.318172 14.3421C0.557934 14.8311 0.921682 15.2487 1.37314 15.5533C1.72654 15.7783 2.12479 15.9234 2.54007 15.9785C2.95535 16.0336 3.37765 15.9974 3.77747 15.8723C4.17729 15.7472 4.54499 15.5363 4.8549 15.2544C5.1648 14.9724 5.40944 14.6262 5.57172 14.2399V14.2399ZM0.594495 12.0713C0.622226 11.5014 0.871782 10.9651 1.28978 10.5769C1.70778 10.1888 2.26103 9.97963 2.83119 9.99427C3.38858 10.1171 3.87539 10.4541 4.18669 10.9326C4.49799 11.4111 4.60885 11.9928 4.49535 12.5523C4.47155 13.1168 4.22849 13.6497 3.81788 14.0376C3.40728 14.4255 2.86155 14.6378 2.29683 14.6293C2.01687 14.5737 1.75064 14.4633 1.51343 14.3045C1.27622 14.1457 1.0727 13.9416 0.914533 13.704C0.756368 13.4663 0.646678 13.1997 0.591758 12.9195C0.536837 12.6394 0.537768 12.3511 0.594495 12.0713V12.0713Z" fill="#EBEFF7"/>
<path d="M14.8079 7.32167C15.1591 7.32167 15.5179 7.32167 15.8919 7.27585H16.6553C16.4339 6.88641 15.1285 4.90869 11.6781 4.07636L11.0445 4H10.075C9.59791 4.00021 9.12126 4.02826 8.64746 4.084C10.3574 4.29017 13.1285 4.99268 14.8079 7.32167V7.32167Z" fill="#FC964B"/>
<path d="M15.8931 7.27588C15.519 7.27588 15.1297 7.27588 14.8091 7.32169C9.97692 7.62714 7.64098 9.40633 7.64098 9.40633H24.0002C22.6463 8.42703 21.0741 7.79273 19.4199 7.55841C18.515 7.39514 17.5987 7.30322 16.6794 7.28352L15.8931 7.27588ZM2.29734 14.6294C2.86206 14.6378 3.40779 14.4255 3.81839 14.0376C4.229 13.6497 4.47206 13.1168 4.49586 12.5524C4.60936 11.9929 4.49851 11.4111 4.1872 10.9326C3.8759 10.4541 3.38909 10.1171 2.8317 9.9943C2.26154 9.97966 1.70829 10.1888 1.29029 10.5769C0.872292 10.9651 0.622737 11.5015 0.595005 12.0713C0.538278 12.3511 0.537348 12.6394 0.592268 12.9196C0.647189 13.1997 0.756878 13.4663 0.915043 13.704C1.07321 13.9417 1.27673 14.1458 1.51394 14.3046C1.75115 14.4634 2.01738 14.5737 2.29734 14.6294V14.6294ZM0.953793 12.1553C0.962584 11.964 1.00914 11.7764 1.09077 11.6032C1.17241 11.43 1.28751 11.2747 1.42943 11.1462C1.57136 11.0177 1.73731 10.9186 1.91771 10.8546C2.09812 10.7906 2.2894 10.7629 2.48055 10.7732C2.84408 10.864 3.15838 11.092 3.3576 11.4094C3.55682 11.7268 3.62551 12.109 3.54928 12.476C3.53143 12.8548 3.36526 13.2113 3.0867 13.4685C2.80815 13.7257 2.43958 13.8629 2.06069 13.8505C1.6907 13.7698 1.36727 13.5468 1.16019 13.2296C0.953106 12.9125 0.878975 12.5266 0.953793 12.1553V12.1553Z" fill="#647096"/>
<path d="M2.06048 13.8504C2.43948 13.8629 2.80815 13.7257 3.0868 13.4685C3.36544 13.2113 3.53165 12.8547 3.5495 12.476C3.62452 12.1037 3.55059 11.7168 3.34358 11.3985C3.13656 11.0801 2.81298 10.8556 2.44228 10.7731C2.06256 10.7627 1.69389 10.9016 1.41548 11.1601C1.13706 11.4185 0.971109 11.7758 0.953258 12.1552C0.878418 12.5266 0.95257 12.9124 1.15971 13.2296C1.36686 13.5467 1.69038 13.7697 2.06048 13.8504V13.8504Z" fill="#FC964B"/>
</g>
<defs>
<clipPath id="clip0">
<rect width="24" height="24" fill="white"/>
</clipPath>
</defs>
</svg>
