<svg width="24" height="24" viewBox="0 0 24 24" fill="none" xmlns="http://www.w3.org/2000/svg">
<path d="M12 0.187451C10.4576 0.178561 8.92859 0.47356 7.50022 1.0556C6.07184 1.63765 4.7721 2.49533 3.6752 3.5797C2.57831 4.66406 1.70574 5.95385 1.10731 7.37544C0.508892 8.79703 0.196339 10.3226 0.1875 11.865V12C0.187652 14.3305 0.877171 16.6089 2.16927 18.5484C3.46138 20.4879 5.29833 22.0019 7.44892 22.8998C9.59952 23.7977 11.9677 24.0393 14.2553 23.5944C16.5429 23.1494 18.6479 22.0377 20.3051 20.3992C21.9624 18.7607 23.0979 16.6685 23.5688 14.3861C24.0397 12.1037 23.825 9.73292 22.9516 7.57226C22.0782 5.4116 20.5852 3.55757 18.6605 2.24351C16.7358 0.929449 14.4654 0.214085 12.135 0.187451H12ZM19.62 7.49995L17.0775 12.3C17.0775 12.45 17.0775 12.45 17.2275 12.5925H18.7275C18.885 12.5925 18.885 12.5925 18.885 12.75V12.9L12.135 17.685H12L5.1375 12.9V12.5925H6.7875C6.80645 12.5946 6.82563 12.5927 6.84378 12.5868C6.86193 12.581 6.87864 12.5714 6.89281 12.5586C6.90698 12.5459 6.91829 12.5303 6.92599 12.5128C6.9337 12.4954 6.93762 12.4765 6.9375 12.4575V12.4575L4.38 7.49995V7.19995H4.6875L10.6875 11.085C10.8375 11.085 10.8375 11.235 10.995 11.3925L11.8875 13.335C12.0375 13.335 12.0375 13.4775 12.1875 13.335L12.3375 13.185L13.2375 11.3925C13.2375 11.235 13.3875 11.235 13.53 11.085L19.53 7.05745C19.68 7.05745 19.68 7.05745 19.68 7.19995V7.49995H19.62Z" fill="#F47B67"/>
</svg>
