<svg width="24" height="24" viewBox="0 0 24 24" fill="none" xmlns="http://www.w3.org/2000/svg">
<path d="M23.7223 11.7975L12.2023 0.277451C12.1504 0.226153 12.0803 0.197388 12.0073 0.197388C11.9343 0.197388 11.8643 0.226153 11.8123 0.277451V0.277451L0.277329 11.7975C0.226031 11.8494 0.197266 11.9195 0.197266 11.9925C0.197266 12.0655 0.226031 12.1355 0.277329 12.1875V12.1875L11.7973 23.7225C11.8493 23.7737 11.9193 23.8025 11.9923 23.8025C12.0653 23.8025 12.1354 23.7737 12.1873 23.7225V23.7225L23.7223 12.2025C23.7736 12.1505 23.8024 12.0805 23.8024 12.0075C23.8024 11.9345 23.7736 11.8644 23.7223 11.8125V11.7975ZM18.7498 9.21745L16.4998 13.56C16.4848 13.5998 16.4858 13.6439 16.5026 13.683C16.5194 13.7222 16.5506 13.7533 16.5898 13.77H18.0073C18.0278 13.7718 18.0477 13.7778 18.0657 13.7875C18.0837 13.7973 18.0996 13.8108 18.1122 13.8269C18.1249 13.8431 18.1341 13.8617 18.1393 13.8816C18.1444 13.9014 18.1455 13.9222 18.1423 13.9425C18.1426 13.9629 18.138 13.9831 18.1289 14.0014C18.1197 14.0196 18.1064 14.0354 18.0898 14.0475L12.1498 18.3375C12.122 18.3519 12.0912 18.3595 12.0598 18.3595C12.0285 18.3595 11.9976 18.3519 11.9698 18.3375L5.99983 14.055C5.97136 14.0244 5.95553 13.9842 5.95553 13.9425C5.95553 13.9007 5.97136 13.8605 5.99983 13.83V13.83C6.026 13.8026 6.06012 13.7843 6.09733 13.7775H7.42483C7.46859 13.7775 7.51056 13.7601 7.5415 13.7291C7.57245 13.6982 7.58983 13.6562 7.58983 13.6125V13.56L5.33983 9.21745C5.32155 9.17857 5.31916 9.13409 5.33317 9.09347C5.34717 9.05286 5.37647 9.01931 5.41483 8.99995C5.43133 8.9925 5.44922 8.98864 5.46733 8.98864C5.48543 8.98864 5.50333 8.9925 5.51983 8.99995L10.8598 12.5025C10.9576 12.5553 11.0343 12.64 11.0773 12.7425L11.8948 14.3775C11.9028 14.395 11.9143 14.4108 11.9286 14.4237C11.9429 14.4367 11.9596 14.4467 11.9779 14.453C11.9961 14.4593 12.0154 14.4618 12.0347 14.4605C12.0539 14.4591 12.0727 14.4538 12.0898 14.445C12.1213 14.4308 12.1475 14.4072 12.1648 14.3775L12.9523 12.75C13.0065 12.6551 13.0807 12.5732 13.1698 12.51L18.5098 8.99995C18.5285 8.99106 18.5488 8.98595 18.5695 8.98491C18.5902 8.98387 18.6109 8.98692 18.6304 8.99389C18.6499 9.00086 18.6678 9.0116 18.6832 9.02551C18.6985 9.03942 18.711 9.05622 18.7198 9.07495V9.07495C18.7365 9.0942 18.748 9.11738 18.7533 9.14232C18.7585 9.16725 18.7573 9.19311 18.7498 9.21745V9.21745Z" fill="#45DDC0"/>
</svg>
