<svg width="24" height="24" viewBox="0 0 24 24" fill="none" xmlns="http://www.w3.org/2000/svg">
<path d="M22.67 0H1.33004C1.2867 0 1.24378 0.0086639 1.20374 0.025497C1.1637 0.0423301 1.12731 0.0670028 1.09667 0.0981064C1.03477 0.160923 1 0.24612 1 0.334956V0.334956V15.2938C1.00093 15.3431 1.0121 15.3916 1.03278 15.4362C1.05346 15.4808 1.08319 15.5205 1.12001 15.5526L11.7937 23.9265C11.8523 23.9741 11.925 24 12 24C12.075 24 12.1477 23.9741 12.2063 23.9265L22.8725 15.5526C22.9115 15.5219 22.9431 15.4827 22.9652 15.4379C22.9873 15.3931 22.9992 15.3439 23 15.2938V0.334956C23 0.24612 22.9652 0.160923 22.9033 0.0981064C22.8414 0.0352899 22.7575 0 22.67 0V0ZM19.6696 6.79809L17.1643 11.8377C17.1424 11.8792 17.1372 11.9278 17.1498 11.9732C17.1624 12.0186 17.1918 12.0573 17.2318 12.0813H18.807C18.8267 12.0741 18.8476 12.0709 18.8685 12.072C18.8894 12.0731 18.9099 12.0784 18.9287 12.0876C18.9476 12.0968 18.9645 12.1098 18.9783 12.1257C18.9922 12.1416 19.0028 12.1601 19.0095 12.1802V12.1802C19.0244 12.2227 19.0226 12.2693 19.0044 12.3104C18.9862 12.3516 18.9532 12.384 18.912 12.401L12.1013 17.4025C12.0707 17.4248 12.0339 17.4368 11.9962 17.4368C11.9586 17.4368 11.9218 17.4248 11.8912 17.4025L4.99795 12.4314C4.97719 12.4246 4.95798 12.4136 4.94143 12.3991C4.92489 12.3846 4.91134 12.367 4.90157 12.3471C4.8918 12.3273 4.88601 12.3057 4.88453 12.2836C4.88305 12.2615 4.88591 12.2393 4.89294 12.2183V12.2183C4.89889 12.1975 4.90894 12.1781 4.92248 12.1614C4.93602 12.1447 4.95276 12.1309 4.9717 12.1209C4.99064 12.111 5.01137 12.105 5.03265 12.1034C5.05392 12.1018 5.07529 12.1047 5.09547 12.1117H6.59564C6.64273 12.1079 6.68665 12.0861 6.71864 12.0509C6.75062 12.0156 6.76831 11.9693 6.76816 11.9214C6.77587 11.894 6.77587 11.865 6.76816 11.8377L4.30038 6.79809C4.28392 6.75837 4.28248 6.71389 4.29632 6.67316C4.31016 6.63243 4.33831 6.5983 4.37538 6.57732C4.40446 6.55831 4.43831 6.54819 4.47289 6.54819C4.50748 6.54819 4.54133 6.55831 4.57041 6.57732L10.6611 10.6349C10.7669 10.7101 10.8542 10.8091 10.9161 10.9241L11.8387 12.8197C11.8518 12.8415 11.869 12.8604 11.8893 12.8753C11.9097 12.8902 11.9328 12.9009 11.9573 12.9065C11.9818 12.9122 12.0071 12.9128 12.0319 12.9084C12.0566 12.9039 12.0802 12.8945 12.1013 12.8806C12.1249 12.8643 12.1453 12.8437 12.1613 12.8197L13.0839 10.9241C13.1432 10.8096 13.228 10.7106 13.3314 10.6349L19.4296 6.57732C19.4643 6.54468 19.5098 6.52654 19.5571 6.52654C19.6044 6.52654 19.6499 6.54468 19.6846 6.57732C19.6992 6.60687 19.7067 6.63945 19.7067 6.67248C19.7067 6.7055 19.6992 6.73808 19.6846 6.76763L19.6696 6.79809Z" fill="#9C84EF"/>
</svg>
