<svg width="24" height="24" viewBox="0 0 24 24" fill="none" xmlns="http://www.w3.org/2000/svg">
<g clip-path="url(#clip0)">
<path d="M23.5728 6.59247L14.0778 12.825C13.9148 12.9312 13.7828 13.0787 13.6953 13.2525L12.2478 16.155C12.2268 16.2031 12.1922 16.2441 12.1482 16.2729C12.1042 16.3017 12.0528 16.3171 12.0003 16.3171C11.9477 16.3171 11.8963 16.3017 11.8523 16.2729C11.8084 16.2441 11.7738 16.2031 11.7528 16.155L10.3053 13.2525C10.2177 13.0787 10.0858 12.9312 9.92276 12.825L0.427765 6.59247C0.380026 6.53578 0.311723 6.50038 0.23788 6.49405C0.164038 6.48772 0.0907053 6.51098 0.0340152 6.55872C-0.0226748 6.60646 -0.0580787 6.67476 -0.064408 6.7486C-0.0707374 6.82245 -0.0474737 6.89578 0.000265244 6.95247L3.96777 14.67C3.98705 14.7104 3.99655 14.7548 3.99549 14.7995C3.99443 14.8443 3.98283 14.8881 3.96165 14.9276C3.94047 14.967 3.91029 15.0009 3.87357 15.0265C3.83684 15.0521 3.7946 15.0687 3.75027 15.075H1.36527C1.30637 15.0744 1.24883 15.0926 1.20096 15.1269C1.1531 15.1613 1.1174 15.2099 1.09902 15.2659C1.08065 15.3218 1.08055 15.3822 1.09875 15.4382C1.11696 15.4942 1.15251 15.543 1.20027 15.5775L11.8353 23.1975C11.8839 23.2307 11.9414 23.2485 12.0003 23.2485C12.0591 23.2485 12.1166 23.2307 12.1653 23.1975L22.8003 15.5775C22.848 15.543 22.8836 15.4942 22.9018 15.4382C22.92 15.3822 22.9199 15.3218 22.9015 15.2659C22.8831 15.2099 22.8474 15.1613 22.7996 15.1269C22.7517 15.0926 22.6942 15.0744 22.6353 15.075H20.2503C20.2033 15.0732 20.1576 15.0598 20.117 15.036C20.0765 15.0123 20.0425 14.9789 20.018 14.9388C19.9935 14.8987 19.9793 14.8532 19.9766 14.8063C19.974 14.7594 19.983 14.7126 20.0028 14.67L24.0003 6.95247C24.048 6.89578 24.0713 6.82245 24.0649 6.7486C24.0586 6.67476 24.0232 6.60646 23.9665 6.55872C23.9098 6.51098 23.8365 6.48772 23.7627 6.49405C23.6888 6.50038 23.6205 6.53578 23.5728 6.59247Z" fill="#FBB848"/>
<path d="M12.2103 0.877468L13.1853 2.86497C13.2026 2.8978 13.2271 2.92631 13.257 2.94838C13.2868 2.97045 13.3213 2.98552 13.3578 2.99247L15.5553 3.30747C15.5983 3.31378 15.6387 3.33203 15.6718 3.36014C15.705 3.38825 15.7296 3.42509 15.7429 3.46649C15.7562 3.50789 15.7576 3.55217 15.7469 3.59433C15.7363 3.63648 15.7141 3.67481 15.6828 3.70497L14.0928 5.24997C14.0671 5.27655 14.0477 5.30853 14.0361 5.34357C14.0244 5.37861 14.0207 5.41582 14.0253 5.45247L14.4003 7.63497C14.4085 7.67704 14.4046 7.72059 14.3889 7.7605C14.3732 7.8004 14.3465 7.835 14.3118 7.86021C14.2771 7.88543 14.236 7.90021 14.1932 7.90283C14.1504 7.90544 14.1077 7.89578 14.0703 7.87497L12.1053 6.84747C12.0733 6.82904 12.0371 6.81933 12.0003 6.81933C11.9634 6.81933 11.9272 6.82904 11.8953 6.84747L9.93026 7.87497C9.89278 7.89578 9.85013 7.90544 9.80734 7.90283C9.76455 7.90021 9.7234 7.88543 9.68873 7.86021C9.65405 7.835 9.62731 7.8004 9.61164 7.7605C9.59596 7.72059 9.59202 7.67704 9.60027 7.63497L9.97527 5.45247C9.97984 5.41582 9.97615 5.37861 9.96447 5.34357C9.95279 5.30853 9.93341 5.27655 9.90777 5.24997L8.31777 3.70497C8.28645 3.67481 8.26422 3.63648 8.2536 3.59433C8.24297 3.55217 8.24438 3.50789 8.25765 3.46649C8.27093 3.42509 8.29555 3.38825 8.32871 3.36014C8.36187 3.33203 8.40225 3.31378 8.44527 3.30747L10.6428 2.99997C10.6792 2.99302 10.7137 2.97795 10.7435 2.95588C10.7734 2.93381 10.7979 2.9053 10.8153 2.87247L11.7903 0.884968C11.8084 0.844904 11.8376 0.810809 11.8743 0.786644C11.9111 0.76248 11.9539 0.749235 11.9979 0.74845C12.0419 0.747665 12.0852 0.75937 12.1228 0.782208C12.1604 0.805045 12.1907 0.838077 12.2103 0.877468Z" fill="#FBB848"/>
</g>
<defs>
<clipPath id="clip0">
<rect width="24" height="24" fill="white"/>
</clipPath>
</defs>
</svg>
