<svg width="24" height="24" viewBox="0 0 24 24" fill="none" xmlns="http://www.w3.org/2000/svg">
<path d="M15.2798 18.1314C18.8964 18.1314 21.8282 15.1982 21.8282 11.58C21.8282 7.96182 18.8964 5.02869 15.2798 5.02869C11.6633 5.02869 8.73145 7.96182 8.73145 11.58C8.73145 15.1982 11.6633 18.1314 15.2798 18.1314Z" fill="white"/>
<path fill-rule="evenodd" clip-rule="evenodd" d="M1.31854 9.93232C1.78387 9.93232 2.17158 9.55216 2.17158 9.09582C2.17158 8.63948 1.78387 8.25926 1.31854 8.25926H0.853224C0.387895 8.25926 0 8.63948 0 9.09582C0 9.55216 0.387895 9.93232 0.853224 9.93232H1.31854ZM18.9232 20.0479C23.3439 18.0705 25.2051 13.0508 23.1888 8.86765C21.7928 5.90146 18.8458 4.15223 15.7436 4H6.98C6.20439 4 5.66145 4.60856 5.66145 5.29307C5.66145 6.05352 6.28201 6.58597 6.98 6.58597H9.22901C9.69433 6.58597 10.082 6.96618 10.082 7.42253C10.082 7.87886 9.69433 8.25926 9.22901 8.25926H3.72271C3.25739 8.25926 2.8695 8.63948 2.8695 9.09582C2.8695 9.55216 3.25739 9.93232 3.72271 9.93232H7.67799C8.14331 9.93232 8.53102 10.3127 8.53102 10.7691C8.53102 11.2254 8.14331 11.6056 7.67799 11.6056H5.19612C4.7308 11.6056 4.34309 11.9858 4.34309 12.4422C4.34309 12.8986 4.7308 13.279 5.19612 13.279H6.90238C6.98 14.1917 7.21266 15.1043 7.60037 15.9409C9.53929 20.124 14.6578 21.9493 18.9232 20.0479ZM10.986 14.3828C9.85993 11.9779 10.9352 9.13302 13.3874 8.02869C15.8397 6.92435 18.7407 7.97886 19.8667 10.3837C20.9928 12.7886 19.9177 15.6334 17.4652 16.7377C15.013 17.8421 12.1121 16.7876 10.986 14.3828V14.3828Z" fill="#4F5D7F"/>
<path d="M17.2601 9.25126L18.8111 11.8373C18.8887 11.9893 18.8887 12.0654 18.8111 12.2175L17.2601 14.8034C17.1825 14.9555 17.0275 14.9555 16.9499 14.9555H13.9252C13.7702 14.9555 13.6926 14.8794 13.6151 14.8034L12.0639 12.2175C11.9865 12.0654 11.9865 11.9893 12.0639 11.8373L13.6151 9.25126C13.6926 9.0992 13.8478 9.0992 13.9252 9.0992H16.9499C17.1051 9.02308 17.1825 9.0992 17.2601 9.25126Z" fill="#C5CEDD"/>
</svg>
