<svg width="128" height="128" viewBox="0 0 128 128" fill="none" xmlns="http://www.w3.org/2000/svg">
<g clip-path="url(#clip0)">
<path d="M93.4611 46.8384L77.52 57.4657C75.9264 59.0599 73.2691 58.5287 72.7379 57.4657C71.1437 55.8715 68.487 54.8091 66.8928 54.2772C62.6419 53.2148 58.9222 54.2772 55.7344 55.8715L50.4207 59.5911L20.6642 78.7201C14.2878 82.971 6.31731 81.3774 2.06643 74.4692C-2.18451 67.5617 0.472322 60.1223 6.84871 56.4033L40.8561 33.0229C50.4207 27.7093 61.5795 25.0524 72.2067 27.7093C81.2397 29.3033 89.2102 34.0857 94.5242 41.5248C96.1178 42.5875 96.1178 45.7757 93.4611 46.8384Z" fill="#5865F2"/>
<path d="M128 62.7749C128 67.5577 125.343 71.8085 121.624 73.934L86.5536 96.7826C80.1767 101.033 72.2067 103.159 64.7674 103.159C61.5789 103.159 58.3911 103.159 55.7344 102.097C46.7009 100.502 39.7932 94.6572 33.4168 88.2809C32.3541 87.2178 32.3541 84.03 34.4796 83.4981L50.4205 72.8709C52.0147 71.2773 54.6714 71.8085 55.2026 72.8709C56.7968 74.4652 58.3911 75.5282 61.0477 76.0594C65.2986 77.1218 69.0183 76.0594 72.2067 74.4652L80.1767 69.6831L104.088 53.742L107.277 51.0851C113.653 46.8343 121.624 48.4284 125.875 55.3362C126.937 57.9929 128 60.1183 128 62.7749Z" fill="#5865F2"/>
</g>
<defs>
<clipPath id="clip0">
<rect width="128" height="128" fill="white"/>
</clipPath>
</defs>
</svg>
