<svg width="24" height="24" viewBox="0 0 24 24" fill="none" xmlns="http://www.w3.org/2000/svg">
<g clip-path="url(#clip0)">
<path d="M17.524 8.78214L14.535 10.7748C14.2362 11.0737 13.738 10.9741 13.6384 10.7748C13.3394 10.4758 12.8413 10.2766 12.5424 10.1769C11.7454 9.97772 11.0479 10.1769 10.4502 10.4758L9.45388 11.1733L3.87454 14.76C2.67896 15.557 1.1845 15.2582 0.387456 13.9629C-0.409596 12.6678 0.0885605 11.2729 1.28413 10.5756L7.66051 6.19174C9.45388 5.19543 11.5462 4.69727 13.5388 5.19543C15.2324 5.49431 16.7269 6.391 17.7233 7.78583C18.0221 7.98509 18.0221 8.58288 17.524 8.78214Z" fill="#5865F2"/>
<path d="M24 11.7702C24 12.667 23.5018 13.464 22.8044 13.8626L16.2288 18.1467C15.0331 18.9437 13.5388 19.3422 12.1439 19.3422C11.546 19.3422 10.9483 19.3422 10.4502 19.143C8.75643 18.8441 7.46123 17.7482 6.26566 16.5526C6.06639 16.3533 6.06639 15.7556 6.46492 15.6558L9.45384 13.6632C9.75276 13.3644 10.2509 13.464 10.3505 13.6632C10.6494 13.9622 10.9483 14.1615 11.4464 14.2611C12.2435 14.4603 12.9409 14.2611 13.5388 13.9622L15.0331 13.0655L19.5166 10.0766L20.1144 9.5784C21.31 8.78136 22.8044 9.08026 23.6015 10.3755C23.8007 10.8736 24 11.2721 24 11.7702Z" fill="#5865F2"/>
</g>
<defs>
<clipPath id="clip0">
<rect width="24" height="24" fill="white"/>
</clipPath>
</defs>
</svg>
