<svg width="24" height="24" viewBox="0 0 24 24" fill="none" xmlns="http://www.w3.org/2000/svg">
<path d="M15.0762 23.23C17.3842 22.4607 19.1542 21.2073 19.1562 16.9813C19.1575 14.3073 22.0002 11.3333 21.9995 8.614C21.9988 6 18.9228 1.69133 11.9328 2.42333C4.74818 3.176 2.00018 5.33333 1.99951 10.0487C1.99951 13.3333 5.53551 15.636 7.41751 19.0607C8.66685 21.3333 12.3675 25.458 15.0762 23.23Z" fill="#BE1931"/>
<path d="M17.5013 2.38129C16.6493 1.68529 15.3147 1.34796 13.9347 1.26329C14.1167 1.23862 14.296 1.21262 14.4813 1.20062C15.13 1.15862 16.8907 0.379288 15.4147 0.475955C14.7687 0.517955 14.1473 0.648622 13.5233 0.757955C13.6813 0.655288 13.8427 0.553955 14.0167 0.463288C14 -4.49073e-05 11.3333 -4.49073e-05 9.98733 1.12529C9.646 1.05062 9.33333 0.666622 7.33333 0.666622C6 0.666622 4.21 1.28396 5.33333 1.33329C5.94467 1.36062 6.66667 1.33329 6.572 1.57662C6.13533 1.61662 4 1.99996 4 2.66662C4 2.90196 5.84 2.55129 6 2.66662C4.852 3.09596 4 3.99996 4 4.66662C4 4.94862 5.474 4.11662 6 3.99996C5.33333 4.66662 5.06667 5.13396 5.10533 5.61796C5.13067 5.93462 6.69733 5.55796 6.86 5.50529C7.408 5.32529 9.33333 4.66662 9.92667 3.68929C10.0047 3.87929 11.902 4.58329 12.6667 4.66662C13.0193 4.70529 14.4133 4.84929 14.094 4.19262C14 3.99996 13.3333 3.33329 13.13 2.68329C13.4273 2.67062 18.6667 3.33329 17.5013 2.38129V2.38129Z" fill="#77B255"/>
<path d="M6.22615 11.5375C6.13549 10.5642 4.53282 9.36949 4.67215 10.8708C4.76282 11.8442 6.36549 13.0388 6.22615 11.5375ZM11.1982 11.9062C11.1522 11.4915 11.0102 11.1122 10.7402 10.7922C10.4295 10.4255 10.0235 10.5508 9.91749 11.0028C9.79282 11.5355 9.97215 12.1708 10.3215 12.5842L10.3488 12.6162C10.2068 12.2662 10.0642 11.9162 9.92082 11.5668L9.92482 11.5982C9.97215 12.0248 10.1895 12.7515 10.6822 12.8688C11.1848 12.9902 11.2328 12.2102 11.1982 11.9062V11.9062ZM15.0328 8.67883C15.3502 8.04216 15.1462 6.03749 14.4788 7.37616C14.1615 8.01216 14.3648 10.0175 15.0328 8.67883ZM19.8402 7.70749C19.8202 7.46949 19.7915 7.18749 19.5795 7.03416C18.7868 6.46216 17.9922 8.60683 18.6562 9.08749C18.6695 9.09549 18.6802 9.10416 18.6928 9.11349L18.4722 8.50083C18.4722 8.51283 18.4728 8.52416 18.4742 8.5355C18.5068 8.9115 18.7248 9.4535 19.1968 9.1675C19.6415 8.89683 19.8822 8.20483 19.8402 7.70749ZM18.9435 13.4188C19.6208 12.3728 18.5802 11.1182 17.7568 12.3908C17.0795 13.4362 18.1208 14.6908 18.9435 13.4188ZM15.1115 15.3482C15.2268 14.0562 13.5722 13.5135 13.4382 15.0175C13.3228 16.3095 14.9775 16.8522 15.1115 15.3482V15.3482ZM8.51415 14.5402L8.48149 14.5428L9.38949 15.0195C9.38549 15.0168 9.38215 15.0122 9.37749 15.0082C9.17349 14.8215 8.47549 14.2862 8.18549 14.6135C7.89215 14.9448 8.51749 15.5608 8.72149 15.7488C8.94949 15.9582 9.34015 16.2575 9.67415 16.2355C10.6322 16.1735 9.15215 14.4988 8.51415 14.5402V14.5402ZM17.3322 18.4782C17.9782 17.7675 17.8155 15.7782 16.8002 16.8942C16.1542 17.6048 16.3175 19.5942 17.3322 18.4782ZM8.39949 9.16883C8.46149 9.1655 8.52415 9.16083 8.58615 9.15616C9.05482 9.1255 9.25549 8.18683 9.28082 7.85483C9.31015 7.47416 9.25215 6.88416 8.75749 6.91683L8.57015 6.92949C8.10215 6.96083 7.90082 7.89883 7.87549 8.23083C7.84615 8.61149 7.90482 9.20216 8.39949 9.16883V9.16883ZM13.6302 19.3402C13.8935 19.8495 13.7982 20.4222 13.4168 20.6195C13.0355 20.8168 12.5122 20.5655 12.2482 20.0568C11.9848 19.5475 12.0802 18.9748 12.4615 18.7775C12.8435 18.5802 13.3662 18.8315 13.6302 19.3402Z" fill="#F4ABBA"/>
</svg>
