<svg width="24" height="24" viewBox="0 0 24 24" fill="none" xmlns="http://www.w3.org/2000/svg">
<path d="M5.67727 10.6191C5.67727 11.7238 6.99327 11.9525 5.33594 11.9525C3.67927 11.9525 1.33594 11.2858 1.33594 10.6191C1.33594 9.95247 2.35327 8.61914 4.0106 8.61914C5.66794 8.61914 5.67727 9.51447 5.67727 10.6191Z" fill="#F4900C"/>
<path d="M18.5945 22.0178C18.5297 21.905 18.4326 21.8142 18.3158 21.7571C17.2511 20.6205 18.0078 19.2865 18.0078 19.2865C18.0078 18.9178 18.6745 17.9531 18.0078 17.9531L17.3411 18.6198C16.6745 19.2865 16.6745 21.2865 16.6745 21.2865H15.3411C15.1643 21.2865 14.9948 21.3567 14.8697 21.4817C14.7447 21.6067 14.6745 21.7763 14.6745 21.9531C14.6745 22.1299 14.7447 22.2995 14.8697 22.4245C14.9948 22.5496 15.1643 22.6198 15.3411 22.6198H16.0791L15.9311 22.6998C15.8541 22.7415 15.7861 22.7979 15.7309 22.8659C15.6757 22.9338 15.6345 23.012 15.6095 23.0959C15.5845 23.1798 15.5763 23.2678 15.5853 23.3549C15.5944 23.442 15.6205 23.5265 15.6621 23.6035C15.7038 23.6805 15.7602 23.7485 15.8282 23.8037C15.8962 23.8589 15.9744 23.9001 16.0583 23.9251C16.1422 23.9501 16.2302 23.9583 16.3173 23.9493C16.4044 23.9402 16.4888 23.9141 16.5658 23.8725L18.3251 22.9211C18.4022 22.8795 18.4703 22.8232 18.5255 22.7553C18.5808 22.6874 18.6221 22.6092 18.6471 22.5253C18.6721 22.4414 18.6804 22.3534 18.6713 22.2663C18.6623 22.1792 18.6362 22.0948 18.5945 22.0178ZM13.9278 22.0178C13.863 21.905 13.766 21.8142 13.6491 21.7571C12.5845 20.6205 13.3411 19.2865 13.3411 19.2865C13.3411 18.9178 14.0078 17.9531 13.3411 17.9531L12.6745 18.6198C12.0078 19.2865 12.0078 21.2865 12.0078 21.2865H10.6745C10.4977 21.2865 10.3281 21.3567 10.2031 21.4817C10.0781 21.6067 10.0078 21.7763 10.0078 21.9531C10.0078 22.1299 10.0781 22.2995 10.2031 22.4245C10.3281 22.5496 10.4977 22.6198 10.6745 22.6198H11.4131L11.2651 22.6998C11.1881 22.7415 11.1201 22.7979 11.0649 22.8659C11.0097 22.9338 10.9685 23.012 10.9435 23.0959C10.9185 23.1798 10.9103 23.2678 10.9193 23.3549C10.9284 23.442 10.9545 23.5265 10.9961 23.6035C11.0378 23.6805 11.0942 23.7485 11.1622 23.8037C11.2302 23.8589 11.3084 23.9001 11.3923 23.9251C11.4762 23.9501 11.5642 23.9583 11.6513 23.9493C11.7384 23.9402 11.8228 23.9141 11.8998 23.8725L13.6591 22.9211C13.8145 22.8369 13.9301 22.6945 13.9805 22.5251C14.0308 22.3557 14.0119 22.1732 13.9278 22.0178V22.0178Z" fill="#FFAC33"/>
<path d="M23.4728 11.5375C22.5781 11.5375 18.2035 14.6128 15.7708 7.95412C15.7675 7.94479 15.7628 7.93812 15.7588 7.92879C15.4427 6.79191 14.8155 5.76586 13.9478 4.96622C13.0801 4.16657 12.0063 3.6251 10.8475 3.40279L10.8228 3.37479C12.2541 2.45679 12.6615 3.13879 12.6615 2.62079C12.6615 1.83479 11.2728 1.75212 9.99479 2.62879C8.71679 1.75212 7.32813 1.83479 7.32813 2.62079C7.32813 3.12812 7.71679 2.48212 9.07679 3.31679C5.85346 3.61212 3.32812 6.32012 3.32812 9.62079C3.32812 12.6061 5.39679 15.1028 8.17679 15.7721C8.84546 18.5528 11.3421 20.6208 14.3281 20.6208C16.9635 20.6208 18.9508 19.5021 20.3215 17.9548C20.6915 17.5375 20.3955 18.3561 20.8828 18.1115C23.7095 16.6901 24.3281 11.5375 23.4728 11.5375Z" fill="#FFCC4D"/>
<path d="M8.33594 9.9541C8.88822 9.9541 9.33594 9.50639 9.33594 8.9541C9.33594 8.40182 8.88822 7.9541 8.33594 7.9541C7.78365 7.9541 7.33594 8.40182 7.33594 8.9541C7.33594 9.50639 7.78365 9.9541 8.33594 9.9541Z" fill="#662113"/>
<path d="M14.5429 10.6209C14.5429 10.6209 13.2096 17.2875 21.2096 17.2875C21.8762 17.2875 21.2096 18.6209 18.5429 18.6209C15.8762 18.6209 11.8769 15.2875 13.8762 11.2875C14.2982 10.4442 14.5429 10.6209 14.5429 10.6209Z" fill="#FFAC33"/>
</svg>
